<svg id="Icons" height="512" viewBox="0 0 74 74" width="512" xmlns="http://www.w3.org/2000/svg"><path d="m70.917 35.7h-67.834a1 1 0 0 1 -1-1v-5.885a1 1 0 0 1 1-1h67.834a1 1 0 0 1 1 1v5.885a1 1 0 0 1 -1 1zm-66.834-2h65.834v-3.885h-65.834z"/><path d="m11.578 65.852h-4.723a1 1 0 0 1 -1-1v-30.152a1 1 0 0 1 1-1h4.723a1 1 0 0 1 1 1v30.152a1 1 0 0 1 -1 1zm-3.723-2h2.723v-28.152h-2.723z"/><path d="m36.547 45.884h-24.969a1 1 0 0 1 -1-1v-10.184a1 1 0 0 1 1-1h24.969a1 1 0 0 1 1 1v10.18a1 1 0 0 1 -1 1.004zm-23.969-2h22.969v-8.184h-22.969z"/><path d="m26.817 40.557h-5.509a1 1 0 0 1 -1-1v-.95a1 1 0 0 1 2-.05h3.511a1 1 0 0 1 2 .05v.95a1 1 0 0 1 -1.002 1z"/><path d="m36.547 56.064h-24.969a1 1 0 0 1 -1-1v-10.18a1 1 0 0 1 1-1h24.969a1 1 0 0 1 1 1v10.18a1 1 0 0 1 -1 1zm-23.969-2h22.969v-8.18h-22.969z"/><path d="m26.817 50.815h-5.509a1 1 0 0 1 -1-1v-.949a1 1 0 0 1 2-.051h3.511a1 1 0 0 1 2 .051v.949a1 1 0 0 1 -1.002 1z"/><path d="m45.872 50.722h-.949a1 1 0 0 1 -.051-2v-3.513a1 1 0 0 1 .051-2h.949a1 1 0 0 1 1 1v5.511a1 1 0 0 1 -1 1.002z"/><path d="m62.422 60.229h-21.6a1 1 0 0 1 -1-1v-24.529a1 1 0 0 1 1-1h21.6a1 1 0 0 1 1 1v24.529a1 1 0 0 1 -1 1zm-20.6-2h19.6v-22.529h-19.6z"/><path d="m39.04 26.352h-20.408a2.286 2.286 0 0 1 -2.284-2.284v-13.636a2.286 2.286 0 0 1 2.284-2.284h20.408a2.286 2.286 0 0 1 2.284 2.284v13.636a2.286 2.286 0 0 1 -2.284 2.284zm-20.408-16.2a.285.285 0 0 0 -.284.284v13.632a.285.285 0 0 0 .284.284h20.408a.285.285 0 0 0 .284-.284v-13.636a.285.285 0 0 0 -.284-.284z"/><path d="m33.412 29.815h-9.152a1 1 0 0 1 -.9-1.442l1.709-3.464a1 1 0 0 1 .9-.557h5.731a1 1 0 0 1 .9.557l1.709 3.464a1 1 0 0 1 -.9 1.442zm-7.544-2h5.932l-.723-1.463h-4.49z"/><path d="m55.207 29.815h-4.22a3.54 3.54 0 0 1 -3.536-3.536v-8.511a1 1 0 0 1 1-1h9.292a1 1 0 0 1 1 1v8.511a3.54 3.54 0 0 1 -3.536 3.536zm-5.756-11.047v7.511a1.538 1.538 0 0 0 1.536 1.536h4.22a1.538 1.538 0 0 0 1.536-1.536v-7.511z"/><path d="m67.145 65.852h-4.723a1 1 0 0 1 -1-1v-30.152a1 1 0 0 1 1-1h4.723a1 1 0 0 1 1 1v30.152a1 1 0 0 1 -1 1zm-3.723-2h2.723v-28.152h-2.723z"/></svg>